<svg width="95" height="89" viewBox="0 0 95 89" fill="none" xmlns="http://www.w3.org/2000/svg">
<ellipse cx="30.9906" cy="31.3222" rx="22.8236" ry="26.3895" fill="#F0F0F0"/>
<ellipse cx="53.9174" cy="44.5" rx="41.0825" ry="44.5" fill="#F0F0F0"/>
<ellipse cx="31.0401" cy="47.8807" rx="31.0401" ry="32.0814" fill="#F0F0F0"/>
<g filter="url(#filter0_d_627_30)">
<path d="M26.104 77V9.8H46.744C58.584 9.8 67.288 12.808 72.856 18.824C78.488 24.84 81.304 33.096 81.304 43.592C81.304 53.896 78.488 62.056 72.856 68.072C67.288 74.024 58.584 77 46.744 77H26.104ZM34.168 70.28H46.552C53.08 70.28 58.264 69.224 62.104 67.112C66.008 64.936 68.792 61.864 70.456 57.896C72.12 53.864 72.952 49.096 72.952 43.592C72.952 37.96 72.12 33.128 70.456 29.096C68.792 25.064 66.008 21.96 62.104 19.784C58.264 17.608 53.08 16.52 46.552 16.52H34.168V70.28Z" fill="url(#paint0_linear_627_30)"/>
</g>
<defs>
<filter id="filter0_d_627_30" x="22.104" y="9.80005" width="63.2" height="75.2" filterUnits="userSpaceOnUse" color-interpolation-filters="sRGB">
<feFlood flood-opacity="0" result="BackgroundImageFix"/>
<feColorMatrix in="SourceAlpha" type="matrix" values="0 0 0 0 0 0 0 0 0 0 0 0 0 0 0 0 0 0 127 0" result="hardAlpha"/>
<feOffset dy="4"/>
<feGaussianBlur stdDeviation="2"/>
<feComposite in2="hardAlpha" operator="out"/>
<feColorMatrix type="matrix" values="0 0 0 0 0 0 0 0 0 0 0 0 0 0 0 0 0 0 0.25 0"/>
<feBlend mode="normal" in2="BackgroundImageFix" result="effect1_dropShadow_627_30"/>
<feBlend mode="normal" in="SourceGraphic" in2="effect1_dropShadow_627_30" result="shape"/>
</filter>
<linearGradient id="paint0_linear_627_30" x1="19" y1="22.3661" x2="91.8843" y2="35.5904" gradientUnits="userSpaceOnUse">
<stop stop-color="#8E1DE8"/>
<stop offset="0.49083" stop-color="#4C76B5"/>
<stop offset="1" stop-color="#0ACF83"/>
</linearGradient>
</defs>
</svg>
